# xmcd CD database file
#
# Track frame offsets:
#	150
#	15758
#	31330
#	44973
#	60804
#	77835
#	92582
#	108286
#	124453
#	138284
#	153031
#	168659
#	184160
#	197507
#	216966
#	239280
#	252321
#	277604
#	292980
#
# Disc length: 4310 seconds
#
# Revision: 0
# Processed by: cddbd v1.5.2PL0 Copyright (c) Steve Scherf et al.
# Submitted via: CDex 1.50Beta7
#
DISCID=fa10d413
DTITLE=Clifford Brown - The Emarcy Master Takes [CD3]
DYEAR=2010
DGENRE=Jazz
TTITLE0=Portrait Of Jenny
TTITLE1=What's New?
TTITLE2=Yesterdays
TTITLE3=Where Or When
TTITLE4=Can't Help Lovin' Dat Man
TTITLE5=Smoke Gets In Your Eyes
TTITLE6=Laura
TTITLE7=Memories Of You
TTITLE8=Embraceable You
TTITLE9=Blue Moon
TTITLE10=Willow Weeo For Me
TTITLE11=Stardust
TTITLE12=Gerkin For Perkin
TTITLE13=Take The "A" Train
TTITLE14=Land's End
TTITLE15=Swingin'
TTITLE16=George's Dilemma
TTITLE17=If I Love Again
TTITLE18=The Blues Walk
EXTD=YEAR: 2010
EXTT0=
EXTT1=
EXTT2=
EXTT3=
EXTT4=
EXTT5=
EXTT6=
EXTT7=
EXTT8=
EXTT9=
EXTT10=
EXTT11=
EXTT12=
EXTT13=
EXTT14=
EXTT15=
EXTT16=
EXTT17=
EXTT18=
PLAYORDER=
